<?xml version="1.0" standalone="no"?>
<!DOCTYPE svg PUBLIC "-//W3C//DTD SVG 20010904//EN"
 "http://www.w3.org/TR/2001/REC-SVG-20010904/DTD/svg10.dtd">
<svg version="1.0" xmlns="http://www.w3.org/2000/svg"
 width="148.000000pt" height="148.000000pt" viewBox="0 0 148.000000 148.000000"
 preserveAspectRatio="xMidYMid meet">
<metadata>
Created by potrace 1.11, written by Peter Selinger 2001-2013
</metadata>
<g transform="translate(0.000000,148.000000) scale(0.100000,-0.100000)"
fill="#000000" stroke="none">
<path d="M544 1317 c-16 -18 -43 -42 -60 -51 -24 -15 -44 -46 -92 -150 -52
-111 -62 -143 -67 -206 -4 -41 -10 -79 -13 -85 -9 -14 -3 -212 7 -239 5 -12
17 -54 26 -92 21 -83 34 -110 71 -148 69 -68 192 -98 260 -63 17 9 49 16 72
15 26 0 52 7 68 18 52 36 83 53 122 65 33 10 45 9 72 -5 47 -23 75 -11 109 44
16 26 43 57 60 69 17 12 31 28 31 36 0 7 3 15 8 17 4 2 23 34 41 73 26 53 34
80 32 116 -1 25 5 79 14 120 9 41 17 85 18 99 1 35 -52 186 -73 207 -95 100
-183 173 -208 173 -245 4 -413 9 -438 14 -26 6 -35 2 -60 -27z"/>
</g>
</svg>
